<svg xmlns="http://www.w3.org/2000/svg" width="59.442001mm" height="59.442001mm" viewBox="0 0 59.442001 59.442001" >
    <path fill="#8C9093" d="m 41.563514,8.4879979 c -1.63782,-0.915369 -3.38028,-1.638778 -5.185,-2.151999 -0.28955,-0.0824 -0.49632,-0.299427 -0.56468,-0.592588 l -0.80391,-3.454705 C 34.742214,1.138087 34.028484,0 32.721224,0 h -5.88923 c -1.30954,0 -1.99404,1.153657 -2.28871,2.2885159 l -0.901141,3.469705 c -0.07387,0.284617 -0.277394,0.492716 -0.560296,0.573031 -1.805117,0.511703 -3.547939,1.233783 -5.186518,2.148012 -0.262983,0.14677 -0.562984,0.139555 -0.818728,-0.01956 l -3.01325,-1.875356 c -1.001575,-0.623347 -2.313589,-0.923343 -3.236742,0 L 6.66236,10.748601 c -0.92467,0.924483 -0.593356,2.227189 0,3.236544 l 1.8174353,3.09243 c 0.14906,0.253667 0.152358,0.544931 0.0082,0.801636 -0.9153703,1.637828 -1.6389573,3.380086 -2.1519963,5.184811 -0.08228,0.289554 -0.299424,0.496322 -0.592582,0.564676 l -3.45471,0.804104 C 1.138286,24.700521 0,25.414246 0,26.721509 v 5.889232 c 0,1.309541 1.153653,1.993836 2.288509,2.288516 l 3.469715,0.901129 c 0.284617,0.07385 0.492708,0.277401 0.573026,0.560309 0.511703,1.805294 1.23379,3.548121 2.1480063,5.186519 0.146752,0.262972 0.139497,0.562968 -0.01962,0.818724 L 6.584292,45.379193 c -0.62335,1.00157 -0.923351,2.31358 0,3.236734 l 4.164249,4.164252 c 0.924489,0.924673 2.227186,0.593348 3.236544,0 l 3.09243,-1.817447 c 0.253667,-0.149044 0.544929,-0.152275 0.80163,-0.0087 1.637836,0.915369 3.380097,1.638968 5.184819,2.152 0.289547,0.08221 0.496319,0.299427 0.564666,0.592588 l 0.804102,3.454704 c 0.267732,1.15043 0.981462,2.288707 2.288712,2.288707 h 5.88924 c 1.30954,0 1.99384,-1.153657 2.28851,-2.288517 l 0.90113,-3.469704 c 0.0739,-0.284617 0.27741,-0.492716 0.56031,-0.573031 1.8053,-0.511703 3.54812,-1.233783 5.18652,-2.148012 0.26298,-0.146769 0.56296,-0.139547 0.81872,0.01955 l 3.01325,1.875358 c 1.00158,0.623345 2.31359,0.923343 3.23675,0 l 4.16424,-4.164254 c 0.92468,-0.924482 0.59335,-2.227188 0,-3.236544 l -1.81745,-3.09243 c -0.14906,-0.253667 -0.15235,-0.544741 -0.008,-0.801636 0.91517,-1.638208 1.63896,-3.380085 2.152,-5.185001 0.0823,-0.289553 0.29942,-0.496322 0.59258,-0.564675 l 3.45471,-0.803915 c 1.15062,-0.267719 2.2887,-0.981444 2.2887,-2.288707 v -5.889231 c 0,-1.309542 -1.15365,-1.994027 -2.28852,-2.288706 l -3.4697,-0.901129 c -0.28462,-0.07386 -0.49271,-0.277402 -0.57303,-0.56031 -0.5117,-1.805104 -1.23379,-3.547931 -2.14802,-5.186519 -0.14675,-0.262972 -0.13949,-0.562968 0.0196,-0.818724 l 1.87536,-3.013255 c 0.62335,-1.00157 0.92336,-2.313579 0,-3.236733 l -4.16424,-4.1642531 c -0.92449,-0.924672 -2.22719,-0.593347 -3.23655,0 l -3.09243,1.817446 c -0.25367,0.14905 -0.54493,0.152276 -0.80163,0.0087 z M 29.721824,18.593128 c 6.14594,0 11.12816,4.982218 11.12816,11.128157 0,6.145938 -4.98222,11.128155 -11.12816,11.128155 -6.145934,0 -11.128152,-4.982217 -11.128152,-11.128155 0,-6.145939 4.982218,-11.128157 11.128152,-11.128157 z"/>
</svg>
