<svg xmlns="http://www.w3.org/2000/svg" width="59.442001mm" height="59.442001mm" viewBox="0 0 59.442001 59.442001" >
    <path fill="#8C9093" d="M 43.452883,0.00539291 H 14.916681 C 9.129796,0.00539291 4.395,4.740184 4.395,10.526875 V 48.920316 C 4.395,54.771622 9.066384,59.442 14.916681,59.442 h 37.875382 c 1.24013,0 2.25453,-1.014602 2.25453,-2.254529 V 10.495965 c 0,-1.239933 -1.0146,-2.254529 -2.25453,-2.254529 h -6.3245 V 2.260123 c 0,-1.77017019 -1.43834,-2.31835019 -2.99813,-2.25533019 l -0.0166,7.901e-4 z M 20.861895,20.187497 h -7.204291 l -1.008018,2.919167 c -0.299115,0.830143 -0.842708,1.506944 -1.785919,1.506944 -0.475592,0 -0.914694,-0.13839 -1.272834,-0.455653 C 9.224914,23.833917 9.06399,23.405586 9.06399,22.920416 c 0,-0.341389 0.04886,-0.681782 0.168104,-1.002832 L 14.681576,7.257546 c 0.455253,-1.224782 1.252495,-2.225423 2.650561,-2.225423 1.363367,0 2.178555,0.84271 2.625833,2.073469 l 5.372713,14.788066 c 0.12004,0.330218 0.21875,0.698725 0.21875,1.052276 0,0.485769 -0.18007,0.90174 -0.55257,1.215812 -0.369103,0.31148 -0.804017,0.451862 -1.285594,0.451862 -1.007221,0 -1.569557,-0.707702 -1.876649,-1.599665 l -0.973122,-2.826446 z m -1.119687,-3.335134 -2.456336,-7.221638 -2.485447,7.221638 h 4.941982 z m 17.737345,5.484785 h -6.53348 c -1.151,0 -2.30718,-0.346181 -2.30718,-1.693002 0,-1.364763 1.16376,-1.71871 2.3327,-1.71871 h 8.87794 c 1.14601,0 2.48625,0.29114 2.48625,1.688801 0,0.682381 -0.49254,1.481419 -0.86923,2.02322 l -8.36127,12.022838 h 7.32853 c 1.16017,0 2.28584,0.360331 2.28584,1.705953 0,1.351609 -1.14721,1.705957 -2.30718,1.705957 h -9.77329 c -1.22099,0 -2.35843,-0.394639 -2.35843,-1.795486 0,-0.6768 0.4076,-1.387499 0.78448,-1.925509 l 8.41451,-12.013675 z m 13.24303,32.781041 H 14.724249 c -3.52956,0 -6.417218,-2.887657 -6.417218,-6.417222 0,-3.529559 2.887856,-6.417217 6.417218,-6.417217 h 29.488584 c 1.23973,0 2.25453,-1.0148 2.25453,-2.254732 V 12.565444 h 4.25502 v 42.552745 z m -6.34843,-8.716418 H 14.724249 c -1.151394,0 -2.093407,0.942007 -2.093407,2.093208 0,1.15139 0.942013,2.093412 2.093407,2.093412 h 29.649904 c 1.1514,0 2.09321,-0.942022 2.09321,-2.093412 0,-1.15139 -0.94201,-2.093208 -2.09321,-2.093208 z"/>
</svg>
