<svg xmlns="http://www.w3.org/2000/svg" width="24" height="24" viewBox="0 0 179.60474 160.01758" stroke="currentColor">
  <path d="M39.957031,0C34.431569,0,29.96875,4.464737,29.96875,9.990234v9.988281H14.984374C6.711787,19.978515,0,26.69032,0,34.96289V49.947265H139.85351V34.96289c0-8.27257-6.71178-14.984375-14.98437-14.984375H109.88476V9.990234C109.88476,4.464737,105.42,0,99.894532,0c-5.52546,0-9.98828,4.464737-9.98828,9.990234v9.988281H49.947262V9.990234C49.947262,4.464737,45.482492,0,39.957031,0ZM0,59.9375v84.91015c0,8.27263,6.711788,14.98438,14.984374,14.98438h88.652346a53.313129,54.094276,0,0,1-23.570318-44.80859,53.313129,54.094276,0,0,1,53.314458-54.093753,53.313129,54.094276,0,0,1,6.47265,0.416016V59.9375ZM134.58398,69.804691a45.091487,45.1065,0,0,0,0,90.212889,45.091487,45.1065,0,0,0,0-90.212889ZM134.58398,86.71875c2.34263,0,4.22852,1.88508,4.22852,4.22851V112.6543l15.02343,10.00781c1.95516,1.30385,2.4831,3.9114,1.17969,5.86719-1.30344,1.95579-3.9277,2.4855-5.86523,1.18164l-16.9082-11.27735c-1.18013-0.79288-1.88477-2.11386-1.88477-3.52344V90.947261c0-2.34343,1.8839-4.22851,4.22656-4.22851Z"/>
</svg>

