<svg xmlns="http://www.w3.org/2000/svg" width="59.442001mm" height="59.442001mm" viewBox="0 0 59.442001 59.442001" >
    <path fill="#8C9093" d="M 13.836882 0.8459432 C 11.934422 0.8459432 10.118292 1.2352703 8.4645996 1.9378662 C 6.810643 2.6404622 5.3188276 3.6568528 4.0648682 4.9108114 C 2.8109099 6.1647709 1.7946506 7.6565862 1.091923 9.3105428 C 0.38919554 10.964499 0 12.780235 0 14.682825 L 0 24.915792 L 0 35.148242 L 0 45.380693 L 0 55.613143 C 0 56.280596 0.2458842 56.858624 0.64285482 57.323116 C 1.0396939 57.787609 1.5880931 58.138869 2.192631 58.353544 C 2.7971689 58.568219 3.4581861 58.646131 4.0808879 58.563867 C 4.7035895 58.481607 5.2877234 58.239462 5.7391846 57.813009 L 8.0511882 55.567151 L 10.363708 53.321293 L 12.675712 51.075952 L 14.987716 48.830094 L 22.642029 48.830094 L 30.296342 48.830094 L 37.950655 48.830094 L 45.604968 48.830094 C 47.507558 48.830094 49.323811 48.4409 50.977767 47.738171 C 52.631723 47.035444 54.123541 46.019185 55.377498 44.765226 C 56.631457 43.511266 57.647847 42.019451 58.350444 40.365495 C 59.053039 38.711669 59.44185 36.895671 59.44185 34.993213 L 59.44185 29.915487 L 59.44185 24.838277 L 59.44185 19.760551 L 59.44185 14.682825 C 59.44185 12.780235 59.052523 10.964499 58.349927 9.3105428 C 57.64733 7.6567182 56.631457 6.1647699 55.377498 4.9108114 C 54.12354 3.6568528 52.631723 2.6404622 50.977767 1.9378662 C 49.323943 1.2352703 47.507558 0.8459432 45.604968 0.8459432 L 37.662817 0.8459432 L 29.720667 0.8459432 L 21.779032 0.8459432 L 13.836882 0.8459432 z M 16.838765 18.089335 L 44.558004 18.089335 C 45.781207 18.089335 46.766138 19.07375 46.766138 20.296952 C 46.766138 21.520155 45.781207 22.505086 44.558004 22.505086 L 16.838765 22.505086 C 15.615563 22.505086 14.631148 21.520155 14.631148 20.296952 C 14.631148 19.07375 15.615563 18.089335 16.838765 18.089335 z M 16.838765 28.517122 L 30.299443 28.517122 C 31.522647 28.517122 32.507576 29.502052 32.507576 30.725256 L 32.507576 30.778483 C 32.507576 32.001687 31.522647 32.9861 30.299443 32.9861 L 16.838765 32.9861 C 15.615561 32.9861 14.631148 32.001687 14.631148 30.778483 L 14.631148 30.725256 C 14.631148 29.502052 15.615561 28.517122 16.838765 28.517122 z " />
</svg>
