<svg xmlns="http://www.w3.org/2000/svg" width="59.442001mm" height="59.442001mm" viewBox="0 0 59.442001 59.442001" >
    <path fill="#8C9093" d="m 1.86e-4,40.41283 h 59.441815 v 15.96798 c 0,1.11749 -0.88755,2.03187 -1.97243,2.03187 h -1.56266 v -8.86091 c 0,-3.01091 -2.39112,-5.47416 -5.31372,-5.47416 v 0 c -2.92257,0 -5.31371,2.46325 -5.31371,5.47416 v 8.86091 h -3.28725 v -8.86091 c 0,-3.01091 -2.39113,-5.47416 -5.31371,-5.47416 v 0 c -2.92258,0 -5.3139,2.46325 -5.3139,5.47416 v 8.86091 h -3.28724 v -8.86091 c 0,-3.01091 -2.39114,-5.47416 -5.313718,-5.47416 v 0 c -2.922577,0 -5.313713,2.46325 -5.313713,5.47416 v 8.86091 h -3.287248 v -8.90731 c 0,-3.01072 -2.391136,-5.47416 -5.313713,-5.47416 v 0 c -2.922577,0 -5.313912,2.46344 -5.313912,5.47416 v 8.90731 H 1.972424 C 0.88773,58.41268 0,57.4983 0,56.38081 V 40.41283 Z M 0.105468,22.53672 c 10.567419,0 21.134859,0 31.702283,0 5.66402,-0.36075 7.12513,12.67011 9.42663,14.22662 h -9.55429 v -5.14936 c 0,-3.01091 -2.39112,-5.47416 -5.31371,-5.47416 v 0 c -2.922579,0 -5.313897,2.46325 -5.313897,5.47416 v 5.14936 h -3.287248 v -5.19576 c 0,-3.01072 -2.391136,-5.47416 -5.313713,-5.47416 v 0 c -2.922577,0 -5.313714,2.46344 -5.313714,5.47416 v 5.19576 H 0.105655 V 22.53672 Z m 28.062103,14.22662 h -3.60255 v -5.11843 c 0,-1.02078 0.81058,-1.85578 1.80118,-1.85578 h 1.8e-4 c 0.99059,0 1.80119,0.835 1.80119,1.85578 z m -13.914872,0 h -3.602534 v -5.16483 c 0,-1.02078 0.810583,-1.85559 1.801176,-1.85559 v 0 c 0.990775,0 1.801177,0.835 1.801177,1.85559 v 5.16483 z m 45.129482,0.21634 h -3.29488 v -5.36589 c 0,-3.01091 -2.39114,-5.47415 -5.31372,-5.47415 v 0 c -2.92257,0 -5.31391,2.46324 -5.31391,5.47415 v 5.36589 h -0.007 c -4.88365,-7.21626 -4.243,-16.10289 -12.3088,-18.03059 h 20.32128 c 3.25447,0 5.9171,2.74313 5.9171,6.09579 v 11.93461 z m -6.80742,0 h -3.60255 v -5.33477 c 0,-1.02078 0.8106,-1.85578 1.80118,-1.85578 h 1.9e-4 c 0.9906,0 1.80118,0.835 1.80118,1.85578 z M 1.86e-4,18.94909 h 7.137623 v -5.31968 c 0,-3.01071 2.391137,-5.47415 5.313714,-5.47415 v 0 c 2.922577,0 5.313713,2.46344 5.313713,5.47415 v 5.31968 h 10.635065 c -1.61726,0 -2.69655,-4.64754 -4.230686,-8.69152 C 22.635643,6.21358 20.287361,1.029 14.710549,1.029 H 1.972611 C 0.887916,1.029 1.86e-4,1.94338 1.86e-4,3.06087 Z m 10.649979,0 h 3.602534 v -5.28874 c 0,-1.02059 -0.810583,-1.85559 -1.801176,-1.85559 v 0 c -0.990775,0 -1.801177,0.835 -1.801177,1.85559 v 5.28874 z m 0,39.4634 h -3.60255 v -8.87638 c 0,-1.02059 0.810599,-1.85559 1.801176,-1.85559 h 1.98e-4 c 0.990775,0 1.801176,0.835 1.801176,1.85559 z m 13.914675,0 H 20.962306 V 49.5827 c 0,-1.02078 0.810583,-1.85559 1.801176,-1.85559 v 0 c 0.990775,0 1.801176,0.835 1.801176,1.85559 v 8.82979 z m 13.914851,0 h -3.60253 V 49.5827 c 0,-1.02078 0.81058,-1.85559 1.80118,-1.85559 h 1.8e-4 c 0.99059,0 1.80117,0.835 1.80117,1.85559 z m 13.91468,0 h -3.60253 V 49.5827 c 0,-1.02078 0.81058,-1.85559 1.80117,-1.85559 h 1.8e-4 c 0.99079,0 1.80118,0.835 1.80118,1.85559 z"/>
</svg>
