<svg xmlns="http://www.w3.org/2000/svg" width="59.442001mm" height="59.442001mm" viewBox="0 0 59.442001 59.442001" >
   <path fill="#8C9093" d="m 41.134344,40.766576 -3.206697,3.207807 -3.103207,3.103207 -0.912106,0.912106 0.605094,0.606103 c 0.219489,0.219388 0.509298,0.328501 0.800596,0.328501 0.290995,0 0.581107,-0.110198 0.800596,-0.328501 l 1.715905,-1.715905 3.067896,-3.067896 1.714896,-1.714896 c 0.219488,-0.219488 0.329712,-0.509399 0.329712,-0.800595 0,-0.275206 -0.0967,-0.550513 -0.290012,-0.7642 l -0.644795,-0.642499 -0.877701,0.877802 -2.02e-4,-10e-4 z m -25.302396,11.888701 -3.067896,-3.067895 -0.03751,-0.0399 -0.05801,-0.05801 c -0.213687,-0.193408 -0.488993,-0.290112 -0.764098,-0.290112 -0.291096,0 -0.581208,0.110299 -0.800697,0.328602 l -0.586707,0.586707 c -0.11721,0.11721 -0.174995,0.269505 -0.174995,0.419606 h 0.0046 c 0,0.152295 0.0568,0.304792 0.171591,0.419707 l 3.950491,3.950389 c 0.11721,0.117312 0.269505,0.175097 0.419706,0.175097 v -0.0046 c 0.152295,0 0.304792,-0.0568 0.419606,-0.171691 l 0.05559,-0.05221 0.535707,-0.535706 c 0.194392,-0.194291 0.301412,-0.447906 0.321792,-0.709492 v -0.0023 -0.0023 -0.0057 -0.0023 -0.0023 -0.0023 -0.0092 -0.0023 -0.0023 -0.0058 -0.0023 -0.002 -0.0023 -0.0013 -0.0013 -0.0034 -0.0023 -0.0023 -0.0023 -0.0013 -0.0023 -0.0034 -0.0023 -0.0023 -0.0023 0 -0.002 -0.0034 -0.0023 -0.0023 -0.0023 c 0,-0.291096 -0.110299,-0.582091 -0.328602,-0.800596 l -0.05801,-0.05801 -0.0012,-0.0023 -0.0014,-0.0092 z m 28.775193,-23.999186 -0.02951,-7.675591 -7.682502,-0.02951 -7.175297,8.296399 -2.349198,2.717904 -0.694812,0.804001 -2.961103,3.425 -3.28181,3.793403 1.807994,1.80701 2.25151,-2.251612 1.454395,-1.454294 2.320899,-2.320898 1.45331,-1.452201 2.349198,-2.350409 1.452201,-1.4521 5.218389,-5.218389 c 0.401496,-0.401496 1.05179,-0.401496 1.453311,0 0.401496,0.401496 0.401496,1.05179 0,1.4521 l -5.324098,5.324098 -1.4521,1.4521 -2.244801,2.244801 -1.45331,1.453311 -2.202705,2.202704 -1.454294,1.454294 -2.369805,2.369805 1.709094,1.709095 6.520389,-5.534405 1.571605,-1.333906 4.212001,-3.574091 6.568084,-5.575493 0.333092,-0.283101 h -2.02e-4 z m 2.013886,-8.694591 0.0341,9.102696 c 0.02051,0.312787 -0.102304,0.631199 -0.360509,0.848292 l -2.020596,1.714896 v 7.64159 c 0.484403,0.586707 0.726592,1.30659 0.726592,2.025288 0,0.720791 -0.242189,1.44191 -0.726592,2.028591 v 2.407287 l 1.780603,1.779693 c 0.462888,-0.243501 0.973498,-0.36631 1.484007,-0.36631 0.815401,0 1.632997,0.310391 2.252797,0.931401 l 0.587892,0.586707 c 0.512703,0.512804 0.7699,1.192809 0.7699,1.871806 h 0.0046 c 0,0.677812 -0.258205,1.356607 -0.773305,1.871807 l -3.950491,3.950491 c -0.512703,0.512703 -1.191801,0.768689 -1.871806,0.768689 v 0.0046 c -0.677812,0 -1.356607,-0.258206 -1.871706,-0.773305 l -0.05231,-0.0568 -0.533311,-0.53331 -0.002,0.0013 C 41.500784,55.168802 41.191402,54.389721 41.1686,53.604006 h -9.454174 v 4.438299 c 0,0.770001 -0.598108,1.399889 -1.328105,1.399889 h -1.330602 c -0.729997,0 -1.328105,-0.629888 -1.328105,-1.399889 v -4.438349 h -9.454099 c -0.02159,0.778904 -0.329787,1.553394 -0.923506,2.151502 l -0.54239,0.542491 -0.05231,0.0568 c -0.5151,0.515099 -1.193895,0.773305 -1.871706,0.773305 v -0.0046 c -0.680006,0 -1.358902,-0.256995 -1.871807,-0.768689 L 9.061305,52.404274 C 8.544995,51.889175 8.288,51.210279 8.288,50.532467 h 0.0046 c 0,-0.678795 0.256994,-1.358801 0.769899,-1.871806 l 0.587853,-0.586746 c 0.620808,-0.620808 1.437395,-0.931401 2.252796,-0.931401 0.510509,0 1.021094,0.121599 1.484007,0.36631 l 1.780702,-1.779693 v -2.406303 c -0.484504,-0.586707 -0.726693,-1.3078 -0.726693,-2.028591 0,-0.718698 0.242189,-1.43959 0.726693,-2.025288 v -7.641591 l -2.020696,-1.714896 c -0.258206,-0.218303 -0.38099,-0.535706 -0.360509,-0.848292 l 0.03531,-9.102695 c 0,-0.565091 0.458298,-1.023489 1.02349,-1.023489 l 1.323489,-0.0046 V 9.9932104 H 27.728745 V 8.362508 H 12.764153 c -0.730098,0 -1.328105,-0.597099 -1.328105,-1.328105 V 5.702792 c 0,-0.731208 0.598007,-1.328105 1.328105,-1.328105 H 27.728745 V 1.399889 C 27.728745,0.62998897 28.326853,0 29.05685,0 h 1.330602 c 0.731208,0 1.328105,0.62998897 1.328105,1.399889 V 4.374687 H 46.68015 c 0.730098,0 1.328104,0.597099 1.328104,1.328105 v 1.331611 c 0,0.729997 -0.596997,1.328105 -1.328104,1.328105 H 31.715557 V 9.9932104 H 44.27526 v 8.9401846 l 1.32359,0.0046 c 0.565191,0 1.023489,0.458398 1.023489,1.023489 h -0.0015 z m -9.552089,17.782581 -2.119494,1.798989 2.25151,2.251611 1.807993,-1.807009 z m -3.6911,3.132694 -2.072908,1.759111 2.733594,2.320999 1.709094,-1.709095 -2.37099,-2.37099 h 0.0012 z m -11.224585,-6.008493 2.418586,-2.797305 -5.324098,-5.324098 c -0.401496,-0.401496 -0.401496,-1.051789 0,-1.4521 0.401496,-0.401496 1.051789,-0.401496 1.453311,0 l 5.218389,5.218389 2.448399,-2.830297 -5.821087,-6.730797 -7.682502,0.02961 -0.02951,7.675591 0.333193,0.2831 6.985496,5.929091 -2.02e-4,-0.0013 z m -6.985496,13.768302 -0.225088,0.225088 1.615795,1.615796 2.870099,-2.8702 -1.615796,-1.615795 -2.644809,2.646095 -2.01e-4,-0.001 z m 31.510072,0.952008 -3.067896,3.067896 -0.0592,0.0592 -0.0023,-0.0023 c -0.218304,0.218303 -0.327594,0.51061 -0.327594,0.80279 v 0.0023 0.0023 0.0034 0.0023 0.0023 0.0013 0.0023 0.0034 0.002 0.0023 0.0023 0.0013 0.0023 0.0034 0.0023 0.0023 0.0013 0.0013 0.0023 0.0034 0.0023 0.0023 0.0013 0.002 0.0023 0.0023 0.0034 0.0023 0 0.0023 0.0023 0.0023 0.0023 0.0023 0 0.0023 0.0023 0.0023 c 0.02159,0.25929 0.130805,0.515099 0.325197,0.709491 -0.0046,0.0046 0.484404,0.488994 0.5321,0.535606 l 0.05559,0.05231 c 0.113603,0.113603 0.2661,0.17159 0.419707,0.17159 v 0.0046 c 0.1501,0 0.302395,-0.0592 0.419606,-0.174996 l 3.950491,-3.950491 c 0.113603,-0.113603 0.17159,-0.2661 0.17159,-0.419706 h 0.0046 c 0,-0.150101 -0.05801,-0.302396 -0.174996,-0.419606 l -0.586682,-0.587538 c -0.219488,-0.219489 -0.509399,-0.328602 -0.800697,-0.328602 -0.275104,0 -0.550411,0.0967 -0.764098,0.290112 l -0.0365,0.03869 -0.0592,0.0592 2.01e-4,0.0108 z m -3.794589,0.889103 1.615796,-1.615796 -0.225012,-0.225088 -2.646096,-2.646095 -1.615795,1.615796 2.870098,2.870199 0.001,10e-4 z m -17.352684,-2.486788 -4.015288,-4.015288 -3.206697,-3.207807 -0.877702,-0.877803 -0.644794,0.6425 c -0.193308,0.213687 -0.290012,0.487808 -0.290012,0.764199 0,0.290995 0.110198,0.581108 0.329712,0.800596 l 1.699889,1.699889 0.0148,0.01481 3.067896,3.067896 0.02951,0.0307 1.722891,1.722791 c 0.213688,0.193408 0.487809,0.290112 0.764099,0.290112 0.291096,0 0.582091,-0.110198 0.800596,-0.328501 l 0.605094,-0.606103 z"/>
</svg>
