<?xml version="1.0" encoding="UTF-8"?>
<svg
  viewBox="0 0 24 24"
  width="24"
  height="24"
  xmlns="http://www.w3.org/2000/svg">
  <path
    d="M14.95 10.41a2.28 2.28 0 0 0 2.21.94l2.25-.32a2.28 2.28 0 0 1 2.21.95l.5.71a1.14 1.14 0 0 1-.28 1.59L10.63 22.12a1.14 1.14 0 0 1-1.59-.28l-.5-.71a2.28 2.28 0 0 1-.13-2.4l1.07-2a2.28 2.28 0 0 0-.13-2.4l-2.46-3.51a1.14 1.14 0 0 0-1.59-.28 2.28 2.28 0 0 1-2.61-3.73l7.46-5.23a2.28 2.28 0 0 1 2.61 3.73 1.14 1.14 0 0 0-.28 1.59zm1.28 7.78l3.27 4.66"
    fill="none"
    stroke="gray"
    strokeWidth="2"
    strokeLinecap="round"
    strokeLinejoin="round"
  />
</svg>
