<?xml version="1.0" encoding="UTF-8" standalone="no"?>
<svg
   viewBox="0 0 21.530106 22.426058"
   width="21.530106"
   height="22.426058"
   >

  <path
     d="m 7.8745284,9.6988555 a 2.28,2.28 0 0 1 -2.21,0.9400005 l -2.25,-0.32 a 2.28,2.28 0 0 0 -2.21,0.95 l -0.50000001,0.71 a 1.14,1.14 0 0 0 0.28,1.59 l 11.21000061,7.84 a 1.14,1.14 0 0 0 1.59,-0.28 l 0.5,-0.71 a 2.28,2.28 0 0 0 0.13,-2.4 l -1.07,-2 a 2.28,2.28 0 0 1 0.13,-2.4 l 2.46,-3.51 a 1.14,1.14 0 0 1 1.59,-0.2800005 2.28,2.28 0 0 0 2.61,-3.73 l -7.46,-5.22999993 a 2.28,2.28 0 0 0 -2.61,3.72999993 1.14,1.14 0 0 1 0.28,1.59 z m -1.28,7.7800005 -3.27,4.66"
     fill="none"
     stroke="#808080"
     strokeWidth="2"
     strokeLinecap="round"
     strokeLinejoin="round"
     id="path1" />
</svg>
