<svg xmlns="http://www.w3.org/2000/svg" width="59.442001mm" height="59.442001mm" viewBox="0 0 59.442001 59.442001" >
    <path fill="#8C9093" d="M 29.710848 0 A 29.711 29.711 0 0 0 0 29.710848 A 29.711 29.711 0 0 0 29.710848 59.422213 A 29.711 29.711 0 0 0 59.422213 29.710848 A 29.711 29.711 0 0 0 29.710848 0 z M 29.752706 12.616284 A 8.8909998 8.8909998 0 0 1 38.643636 21.507214 A 8.8909998 8.8909998 0 0 1 33.684249 29.475203 A 15.522 15.522 0 0 1 45.249951 44.479972 A 15.522 15.522 0 0 1 45.169853 45.59825 L 14.28595 45.59825 A 15.522 15.522 0 0 1 14.205851 44.479972 A 15.522 15.522 0 0 1 25.894027 29.450399 A 8.8909998 8.8909998 0 0 1 20.861776 21.507214 A 8.8909998 8.8909998 0 0 1 29.752706 12.616284 z " />
</svg>
