<svg xmlns="http://www.w3.org/2000/svg" width="59.442001mm" height="59.442001mm" viewBox="0 0 59.442001 59.442001" >
  <path fill="#8C9093" d="M 36.819859,7.9067814 52.853782,19.860379 c 0.547803,0.408534 0.771113,0.572565 0.977557,0.724367 1.78696,1.31377 2.603518,1.914101 2.859562,2.954785 0.214929,0.874234 -0.07263,1.661217 -0.602139,3.109416 -0.232303,0.635283 -0.520648,1.423871 -0.863127,2.505467 l -7.013508,22.149048 c -0.179265,0.566196 -0.305414,0.987264 -0.414292,1.351141 -0.464986,1.553053 -0.688295,2.298105 -1.419515,2.794603 -0.668807,0.454489 -1.381558,0.429856 -2.750583,0.382779 -0.480652,-0.01655 -1.067737,-0.03686 -1.951371,-0.03686 H 17.696517 c -0.75626,0 -1.209349,0.01253 -1.585761,0.02293 -1.311044,0.03625 -1.974297,0.05474 -2.599493,-0.393479 -0.640734,-0.459229 -0.831614,-1.112191 -1.217731,-2.433043 -0.09545,-0.32694 -0.209579,-0.716674 -0.422265,-1.388513 L 4.6409189,28.769112 C 4.3220803,27.761851 4.0548274,27.031651 3.8395935,26.443343 3.3440892,25.088966 3.0748494,24.352269 3.2784415,23.521674 3.5229457,22.52473 4.2882247,21.961871 5.9650826,20.728779 c 0.316928,-0.233194 0.674565,-0.496294 0.898383,-0.66305 l -0.0015,-0.0019 L 23.016587,8.0202199 c 1.180157,-0.8797869 1.997327,-1.5248773 2.677547,-2.0617776 1.986424,-1.5679802 2.989737,-2.3601094 4.24968,-2.3713182 1.284499,-0.011617 2.313567,0.7926387 4.391699,2.4170704 0.639817,0.5000387 1.396792,1.0918875 2.484247,1.9025875 z M 26.95489,33.449668 c -1.461039,0.376614 -2.811492,0.09979 -3.946203,-1.165815 -0.648096,0.794141 -1.522431,1.060987 -2.560492,0.987569 -1.008967,-0.0713 -1.911274,-0.596791 -2.601811,-1.315502 -0.604178,-0.628915 -1.048555,-1.398014 -1.360133,-2.215185 -0.0713,3.023057 0.08463,6.650318 1.20642,9.282216 0.864935,2.029246 2.709466,4.125975 4.440586,5.47681 1.526177,1.190959 3.655716,2.365867 5.623773,2.499303 1.119858,0.07584 2.285392,-0.114228 3.351016,-0.4563 0.20158,-0.06473 0.40107,-0.136644 0.598319,-0.213705 0.38176,-0.149281 2.050467,-0.897976 2.24578,-1.230749 0.556694,-0.948058 0.331882,-2.157205 1.176336,-3.000436 0.545994,-0.545179 1.158044,-0.968158 1.828965,-1.343677 0.559013,-0.312903 1.145104,-0.580233 1.697672,-0.901899 0.473774,-0.275736 0.945027,-0.56477 1.370833,-0.911605 1.823617,-1.485162 2.175088,-3.867002 2.316599,-6.084913 0.127754,-2.002677 0.565075,-5.290159 -0.287734,-7.09016 -0.393989,-0.578628 -1.631922,-1.279941 -2.320625,-1.279941 -0.05839,0 -0.117157,0.0037 -0.174729,0.01342 -1.271457,0.21391 -2.572414,0.441957 -3.860939,0.513159 -1.102383,0.06091 -2.209937,0.0031 -3.310613,-0.06575 -0.07505,-0.0046 -0.340671,-0.01352 -0.4241,0.02919 -0.212712,0.58599 -0.250159,1.207924 -0.05907,1.806345 0.265928,0.83294 0.915349,1.466083 1.672222,1.871586 0.961611,0.515196 2.096219,0.677901 3.174962,0.597707 0.775061,-0.05777 1.990067,-0.31461 2.11642,0.779494 0.05665,0.490537 -0.01182,0.954121 0.01332,1.44578 l 0.01172,0.228455 -0.22815,-0.01666 c -1.823005,-0.133715 -3.482108,-0.01737 -5.270977,0.41126 -3.570071,0.855561 -6.709802,2.777739 -9.343023,5.308858 l -0.935251,0.89899 0.617603,-1.140772 c 0.838493,-1.548594 1.933514,-2.670084 3.221326,-3.717034 z m 7.635849,-10.002329 c 1.425884,0.01938 3.36546,0.02142 4.696401,-0.367724 0.07624,-0.277239 0.06756,-0.56156 0.02132,-0.84616 -0.0298,-0.183825 -0.141689,-0.55165 -0.0616,-0.71698 0.143523,-0.296319 0.50307,-0.0494 0.646185,0.103121 0.227538,0.242593 0.362272,0.571342 0.411668,0.897262 l 0.0018,0.01141 5.09e-4,0.01151 c 0.0049,0.136951 0.01039,0.274411 0.01273,0.411769 0.460859,0.01789 0.926558,0.07907 1.347015,0.256427 -0.675457,-1.695142 -1.636456,-4.024554 -2.854671,-5.149482 -1.093213,-1.009376 -2.908346,-1.064222 -3.940038,0.05867 -0.46468,0.505694 -0.432989,0.647791 -0.431359,1.308828 0.0013,0.526099 0.01959,1.053701 0.04071,1.579316 0.02181,0.542963 0.04868,1.085621 0.07413,1.62838 0.01243,0.264425 0.03131,0.543575 0.03536,0.81363 z m -1.329335,0.08039 c -0.0031,-0.23755 -0.01687,-0.481749 -0.02596,-0.714458 -0.02112,-0.539931 -0.04657,-1.079965 -0.07576,-1.619693 -0.02262,-0.419432 -0.04755,-0.838997 -0.07776,-1.257925 -0.02181,-0.302583 -0.02484,-0.877364 -0.156346,-1.140872 -0.214622,-0.430442 -0.547014,-0.741639 -0.996537,-0.914534 -0.326939,-0.12564 -0.684371,-0.165941 -1.03271,-0.149382 -0.501669,0.02384 -1.03755,0.169074 -1.479329,0.409145 -0.222596,0.121004 -0.631232,0.394193 -0.675583,0.669317 l -0.0065,0.0401 -0.0063,0.01001 c -0.01908,0.12564 -0.0018,0.402879 0.002,0.52075 0.01284,0.396714 0.03352,0.793836 0.05322,1.19027 0.05798,1.161891 0.116138,2.323145 0.150376,3.486158 0.03999,1.359038 -0.03284,2.716956 0.001,4.072835 0.01171,0.464986 0.04071,1.869063 0.501949,2.145588 0.783544,0.469648 2.392131,0.364592 2.984998,-0.439638 -0.149382,-0.06394 -0.293389,-0.139982 -0.431053,-0.226952 -0.618725,-0.390651 -1.091174,-0.987366 -1.410828,-1.639411 -0.547804,-1.117642 -0.871814,-3.105085 0.211183,-4.024561 0.353892,-0.300471 0.791314,-0.407617 1.248327,-0.38036 0.407821,-0.0013 0.814445,-0.02858 1.221373,-0.03635 z m -6.363577,-4.3932 c -0.611439,-0.203205 -1.254084,-0.304313 -1.888144,-0.144919 -1.214191,0.305006 -2.002677,0.969585 -1.880578,2.301544 0.114635,1.251152 0.243816,2.487277 0.322176,3.743475 0.05989,0.959572 0.106051,1.919961 0.166348,2.879559 0.0604,0.960389 0.122507,1.949155 0.256325,2.901875 0.109285,0.778807 1.348415,1.142991 2.026725,1.135017 0.824252,-0.0097 1.708981,-0.744466 1.671508,-1.601326 -0.07959,-1.817962 -0.05484,-3.660557 -0.07341,-5.481652 -0.01091,-1.076144 -0.02838,-2.153995 -0.07686,-3.229094 -0.02283,-0.505185 -0.0055,-1.012713 -0.03131,-1.515274 -0.01292,-0.249879 -0.04112,-0.610725 -0.210675,-0.810318 -0.07515,-0.08837 -0.172996,-0.142606 -0.282078,-0.178856 z m -4.730639,12.231452 c 0.01959,-0.112112 0.02242,-0.30684 0.02637,-0.400662 0.01312,-0.320265 0.01717,-0.64183 0.01908,-0.9624 0.0054,-0.911401 -0.01049,-1.825528 -0.0415,-2.736445 -0.0092,-0.267151 -0.01979,-0.534174 -0.03233,-0.801121 -0.06473,-1.382169 -0.166654,-2.767753 -0.304497,-4.144546 -0.01727,-0.172514 -0.03908,-1.100269 -0.13504,-1.206217 -0.108266,-0.11968 -0.697287,-0.07546 -0.839792,-0.06746 -0.692142,0.03859 -1.499913,0.217858 -2.103071,0.570833 -0.893824,0.523169 -1.058363,1.542938 -1.186118,2.484551 -0.286435,2.111071 -0.138581,5.356826 1.470642,6.964827 0.76961,0.7691 2.235997,0.996332 3.126279,0.298664 z" />
</svg>
