<svg xmlns="http://www.w3.org/2000/svg" width="59.442001mm" height="59.442001mm" viewBox="0 0 59.442001 59.442001" >
    <path fill="#8C9093" d="m 41.563514,8.4879978 c -1.63782,-0.915368 -3.380279,-1.638777 -5.185001,-2.151999 -0.289547,-0.0824 -0.496319,-0.299427 -0.564682,-0.592588 L 35.009926,2.2887064 C 34.74221,1.1380874 34.028484,0 32.721219,0 H 26.83199 c -1.30954,0 -1.994032,1.1536568 -2.288707,2.2885164 l -0.90114,3.4697044 c -0.07387,0.284617 -0.277395,0.492716 -0.560297,0.573031 -1.805117,0.511703 -3.547939,1.233783 -5.186517,2.148012 -0.262983,0.14677 -0.562984,0.139555 -0.818728,-0.01956 l -3.01325,-1.875356 c -1.001576,-0.623347 -2.313589,-0.923344 -3.236742,0 L 6.6623601,10.748601 c -0.9246703,0.924482 -0.593357,2.227188 0,3.236543 l 1.817435,3.092431 c 0.14906,0.253666 0.152358,0.54493 0.0082,0.801636 -0.915371,1.637828 -1.638957,3.380085 -2.151996,5.18481 -0.08228,0.289554 -0.299424,0.496323 -0.5925822,0.564676 L 2.2887068,24.432801 C 1.1382854,24.70052 0,25.414245 0,26.721508 v 5.889233 c 0,1.30954 1.1536532,1.993835 2.2885089,2.288515 l 3.4697152,0.901129 c 0.284617,0.07385 0.492708,0.277401 0.573026,0.56031 0.511703,1.805293 1.23379,3.54812 2.148006,5.186519 0.146752,0.262971 0.139497,0.562967 -0.01962,0.818723 l -1.875344,3.013255 c -0.6233502,1.00157 -0.9233512,2.313581 0,3.236734 l 4.1642489,4.164252 c 0.924489,0.924673 2.227186,0.593348 3.236544,0 l 3.09243,-1.817446 c 0.253667,-0.149044 0.544929,-0.152276 0.801629,-0.0087 1.637837,0.915368 3.380098,1.638967 5.184819,2.151999 0.289547,0.08221 0.496319,0.299427 0.564666,0.592589 l 0.804103,3.454703 c 0.267732,1.15043 0.981459,2.288707 2.288707,2.288707 h 5.889245 c 1.309541,0 1.993834,-1.153657 2.288509,-2.288517 l 0.901124,-3.469704 c 0.07387,-0.284616 0.277411,-0.492716 0.560313,-0.573031 1.805299,-0.511703 3.548121,-1.233783 5.186517,-2.148012 0.262984,-0.146769 0.562968,-0.139547 0.818729,0.01956 l 3.01325,1.875357 c 1.001575,0.623345 2.313589,0.923343 3.236742,0 l 4.164249,-4.164254 c 0.92467,-0.924482 0.59334,-2.227188 0,-3.236544 l -1.817451,-3.09243 c -0.149061,-0.253667 -0.152359,-0.544741 -0.0082,-0.801636 0.915173,-1.638207 1.638958,-3.380084 2.151996,-5.185 0.08228,-0.289554 0.299424,-0.496323 0.592582,-0.564676 l 3.45471,-0.803915 c 1.15062,-0.267719 2.288707,-0.981444 2.288707,-2.288707 V 26.83129 c 0,-1.309541 -1.153653,-1.994026 -2.288525,-2.288706 l -3.469699,-0.901129 c -0.284617,-0.07386 -0.492708,-0.277401 -0.573026,-0.56031 -0.511703,-1.805104 -1.233789,-3.547931 -2.148022,-5.186519 -0.146752,-0.262971 -0.139497,-0.562967 0.01962,-0.818723 l 1.87536,-3.013255 c 0.62335,-1.001571 0.923351,-2.31358 0,-3.236733 L 48.693921,6.6616608 c -0.924489,-0.924672 -2.227187,-0.593347 -3.236545,0 l -3.09243,1.817447 c -0.253667,0.149049 -0.544928,0.152276 -0.801629,0.0087 z M 21.570662,27.972382 h 16.302332 c 0.08014,0 0.149061,0.03722 0.192905,0.104425 0.0437,0.06721 0.05013,0.145251 0.01781,0.218731 l -8.151158,18.512814 c -0.03759,0.08545 -0.117401,0.137468 -0.210762,0.137468 -0.09333,0 -0.173168,-0.05202 -0.210746,-0.137468 L 21.359867,28.295538 c -0.03232,-0.07329 -0.02589,-0.151517 0.01781,-0.218731 0.0437,-0.06721 0.112785,-0.104425 0.192921,-0.104425 z m 0.682018,-1.912002 7.312313,-6.789412 c 0.08855,-0.08221 0.224811,-0.08221 0.313472,0 l 7.312313,6.789412 c 0.07074,0.06569 0.09283,0.163092 0.05771,0.252908 -0.03529,0.09 -0.117732,0.146208 -0.214374,0.146208 H 22.409293 c -0.09663,0 -0.179038,-0.0562 -0.214357,-0.146208 -0.03529,-0.09 -0.01319,-0.187213 0.05771,-0.252908 z m 16.314287,-6.916625 v 5.644678 c 0,0.09361 -0.05244,0.173733 -0.138178,0.211136 -0.08591,0.0374 -0.180192,0.02145 -0.248737,-0.04234 l -6.07872,-5.644679 c -0.0709,-0.06569 -0.09283,-0.163093 -0.05771,-0.252909 0.03529,-0.09 0.117732,-0.146191 0.214357,-0.146191 H 38.3367 c 0.1268,0 0.230318,0.103485 0.230318,0.230313 z M 21.106794,18.913442 h 6.078737 c 0.09662,0 0.179037,0.05619 0.214357,0.146191 0.03529,0.09 0.01319,0.187213 -0.05771,0.252909 l -6.078737,5.644679 c -0.06859,0.0636 -0.162911,0.07974 -0.24872,0.04234 -0.08591,-0.0374 -0.138178,-0.117533 -0.138178,-0.211136 v -5.644678 c 0,-0.126833 0.103386,-0.230313 0.230302,-0.230313 z m -2.022888,7.605286 h -5.407717 c -0.09432,0 -0.174866,-0.05316 -0.211703,-0.139926 -0.0371,-0.08676 -0.01979,-0.181517 0.04551,-0.249681 l 5.407717,-5.644678 c 0.06645,-0.0693 0.163077,-0.0902 0.25215,-0.0543 0.08904,0.03588 0.144444,0.117715 0.144444,0.213795 v 5.644677 c 0,0.126834 -0.103551,0.230315 -0.230319,0.230315 z m 21.045509,-0.230314 v -5.644677 c 0,-0.09608 0.0554,-0.17791 0.144444,-0.213795 0.08904,-0.03588 0.185699,-0.015 0.25215,0.0543 l 5.407717,5.644678 c 0.0653,0.06817 0.08261,0.163093 0.04551,0.249681 -0.0371,0.08676 -0.117567,0.139942 -0.211719,0.139942 H 40.3598 c -0.126801,0 -0.230302,-0.103485 -0.230302,-0.230313 z m -26.749418,1.605172 h 6.039229 c 0.09366,0 0.173729,0.0524 0.211142,0.138227 l 6.710415,15.39437 c 0.04617,0.105761 0.0082,0.227656 -0.09036,0.288225 -0.0986,0.06038 -0.224234,0.03969 -0.298088,-0.04937 L 13.202476,28.27067 c -0.05821,-0.07044 -0.06991,-0.162335 -0.03116,-0.244935 0.03891,-0.08259 0.117237,-0.13234 0.20847,-0.13234 z m 32.860804,0.377273 -12.749842,15.39437 c -0.07371,0.08886 -0.199567,0.109751 -0.298105,0.04937 -0.09844,-0.06056 -0.136529,-0.182465 -0.09036,-0.288224 l 6.710431,-15.39437 c 0.03743,-0.08582 0.117567,-0.138228 0.211126,-0.138228 h 6.039427 c 0.09135,0 0.169557,0.04955 0.208471,0.132341 0.03875,0.08259 0.02721,0.174492 -0.03117,0.244934 z"/>
</svg>
